<svg width="888" height="240" xmlns="http://www.w3.org/2000/svg"><g fill="none" fill-rule="evenodd"><rect fill="#3CD1BC" fill-rule="nonzero" width="888" height="240" rx="4"/><path d="M262.3 108.3H252V59.7h10.2v48.6zm7.2 0V72.2h9.5v6.4h.2c2-4.5 5.7-7.1 11.3-7.1 8 0 12.5 5 12.5 13.5v23.3h-9.8V87c0-4.7-2.2-7.4-6.6-7.4-4.4 0-7.2 3.3-7.2 8v20.7h-9.9zm42.4 0V79.6h-5v-7.3h5v-2.7c0-7 3.3-10.4 11.9-10.4 1.8 0 3.9.2 5 .5v6.5c-.7-.2-1.7-.2-2.6-.2-3.3 0-4.7 1.4-4.7 4v2.3h7.2v7.3h-7v28.7H312zm37.5.7c-11 0-17.9-7-17.9-18.8 0-11.7 7-18.8 17.9-18.8 10.8 0 17.9 7 17.9 18.8 0 11.9-7 18.8-17.9 18.8zm0-7.5c4.8 0 7.9-4 7.9-11.3 0-7.2-3.1-11.3-7.9-11.3-4.8 0-8 4.1-8 11.3 0 7.3 3.1 11.3 8 11.3zm23 6.8V72.2h9.4v6.5h.2c1.3-4.6 4.4-7.1 8.6-7.1 1.2 0 2.2.1 2.8.3v8.7c-.8-.3-2.1-.6-3.5-.6-4.9 0-7.7 3-7.7 8v20.3h-9.9zm25 0V72.2h9.5v6.5h.2c1.6-4.4 5.4-7.2 10.4-7.2 5.2 0 8.8 2.7 10 7.4h.2c1.7-4.6 6-7.4 11.3-7.4 7 0 11.8 4.8 11.8 12.1v24.7h-9.9V86c0-4.2-2-6.5-5.9-6.5-3.7 0-6.2 2.7-6.2 6.7v22h-9.4V85.8c0-4-2.2-6.2-5.9-6.2s-6.2 2.8-6.2 6.9v21.8h-9.9zm73.6-6.6c4.2 0 7.8-2.8 7.8-6.7v-2.6l-7.6.5c-3.7.2-5.8 1.9-5.8 4.5s2.2 4.3 5.6 4.3zm-3.3 7.1c-6.8 0-12-4.4-12-11 0-6.5 5-10.3 14-10.8l9-.6V84c0-3.3-2.3-5.3-6-5.3s-6 1.8-6.5 4.5h-9c.4-7 6.4-11.8 16-11.8 9.2 0 15.2 4.8 15.2 12v24.9H479v-5.6h-.2c-2 3.9-6.5 6.1-11 6.1zm29.7-45h9.8v8.4h6.7v7.4h-6.7v17.2c0 2.8 1.4 4.1 4.3 4.1l2.4-.1v7.2c-1 .2-2.7.4-4.7.4-8.5 0-11.8-2.8-11.8-9.9v-19h-5v-7.3h5v-8.4zm22 44.5V72.2h10v36h-10zm5-40.1c-3 0-5.3-2.3-5.3-5.1 0-2.9 2.3-5.1 5.3-5.1s5.2 2.2 5.2 5c0 3-2.2 5.2-5.2 5.2zm28 40.8c-10.9 0-17.9-7-17.9-18.8 0-11.7 7.1-18.8 18-18.8 10.7 0 17.8 7 17.8 18.8 0 11.9-7 18.8-17.9 18.8zm0-7.5c4.8 0 8-4 8-11.3 0-7.2-3.2-11.3-8-11.3s-7.9 4.1-7.9 11.3c0 7.3 3 11.3 8 11.3zm23 6.8V72.2h9.5v6.4h.2c1.9-4.5 5.7-7.1 11.3-7.1 8 0 12.5 5 12.5 13.5v23.3H599V87c0-4.7-2.3-7.4-6.7-7.4s-7.2 3.3-7.2 8v20.7h-9.8zm-291.5 72l-3.7-11.8h-17l-3.8 11.8H249l16.9-48.6h12l16.9 48.6h-10.9zm-12.3-39.4l-6.3 20H278l-6.2-20h-.2zm27.3 39.4v-36.1h9.5v6.5h.2c1.2-4.6 4.3-7.1 8.6-7.1 1.1 0 2 .1 2.8.3v8.7c-.9-.3-2.2-.6-3.6-.6-4.9 0-7.7 3-7.7 8v20.3h-9.8zm56.7-22.7h-9.1c-.6-3.8-3.1-6.5-7.2-6.5-4.8 0-7.9 4.1-7.9 11 0 7.2 3 11.2 8 11.2 3.9 0 6.5-2.3 7-6.3h9.2c-.5 8.6-6.8 14-16.3 14-11 0-17.8-7-17.8-18.8 0-11.6 6.9-18.8 17.7-18.8 9.8 0 16 6 16.4 14.2zm5 22.7v-48.6h9.7v18.9h.2c2-4.6 5.9-7.1 11.3-7.1 8 0 12.6 5.2 12.6 13.5v23.3h-9.8V159c0-4.6-2.3-7.5-6.8-7.5-4.6 0-7.3 3.3-7.3 8v20.7h-9.9zm40.3 0v-36.1h9.8v36H401zm4.9-40.1c-3 0-5.3-2.3-5.3-5.1 0-2.9 2.3-5.1 5.3-5.1s5.3 2.2 5.3 5c0 3-2.3 5.2-5.3 5.2zm14-4.4h10v8.4h6.6v7.4h-6.7v17.2c0 2.8 1.4 4.1 4.3 4.1l2.4-.1v7.2c-1 .2-2.7.4-4.7.4-8.5 0-11.8-2.8-11.8-9.9v-19h-5.1v-7.3h5v-8.4zm37.7 14.9c-4.3 0-7.4 3.2-7.8 7.7h15.4c-.2-4.6-3.2-7.7-7.6-7.7zm7.7 18.5h9c-1 7-7.5 11.8-16.4 11.8-11.2 0-17.8-7-17.8-18.6 0-11.5 6.7-19 17.4-19 10.5 0 17.1 7 17.1 18v3h-24.9v.7c0 5.1 3.3 8.7 8.3 8.7 3.6 0 6.4-1.8 7.3-4.6zm47.2-11.6h-9.1c-.6-3.8-3.1-6.5-7.2-6.5-4.8 0-7.9 4.1-7.9 11 0 7.2 3 11.2 8 11.2 3.9 0 6.5-2.3 7-6.3h9.2c-.5 8.6-6.8 14-16.3 14-11 0-17.8-7-17.8-18.8 0-11.6 6.9-18.8 17.7-18.8 9.8 0 16 6 16.4 14.2zm7.4-21.8h9.8v8.4h6.7v7.4h-6.7v17.2c0 2.8 1.4 4.1 4.3 4.1l2.4-.1v7.2c-1 .2-2.7.4-4.7.4-8.5 0-11.8-2.8-11.8-9.9v-19h-5v-7.3h5v-8.4zm55.3 8.4v36h-9.5v-6.4h-.2c-1.8 4.5-5.4 7.1-10.9 7.1-7.8 0-13-5-13-13.5v-23.2h9.9v21.2c0 4.8 2.4 7.4 6.7 7.4 4.4 0 7.1-3.2 7.1-8v-20.6h9.9zm6.4 36v-36h9.5v6.5h.2c1.3-4.6 4.3-7.1 8.6-7.1 1.1 0 2 .1 2.8.3v8.7c-.9-.3-2.2-.6-3.6-.6-4.9 0-7.7 3-7.7 8v20.3h-9.8zm40-29.5c-4.2 0-7.3 3.2-7.7 7.7h15.4c-.2-4.6-3.2-7.7-7.6-7.7zm7.8 18.5h9c-1 7-7.5 11.8-16.4 11.8-11.2 0-17.8-7-17.8-18.6 0-11.5 6.7-19 17.4-19 10.5 0 17.1 7 17.1 18v3h-24.9v.7c0 5.1 3.3 8.7 8.3 8.7 3.6 0 6.4-1.8 7.3-4.6z" fill="#FFF"/><path d="M91.2 180H66V60h25.2v120zm103 0l-9.1-29.1h-42.3l-9.2 29.1h-25.8l41.8-120h29.6L221 180h-26.8zm-30.5-97L148.2 132h31.5L164.2 83h-.5z" fill="#373842" opacity=".2"/></g></svg>